<svg width="24" height="24" viewBox="0 0 24 24" fill="none" xmlns="http://www.w3.org/2000/svg">
    <path fill-rule="evenodd" clip-rule="evenodd" d="M9.23067 8.64024H5.53835C5.13461 8.64024 4.85101 8.44033 4.68738 8.04024C4.524 7.65009 4.59124 7.30522 4.8894 7.00517L11.3509 0.285076C11.5241 0.095043 11.7405 0 11.9999 0C12.2596 0 12.4757 0.095043 12.6489 0.285076L19.1106 7.00517C19.4086 7.30522 19.4761 7.6503 19.3125 8.04024C19.1493 8.44012 18.8656 8.64024 18.4616 8.64024H14.7692V15.3604C14.7692 15.6205 14.6779 15.8455 14.4954 16.0354C14.3125 16.2253 14.0963 16.3205 13.8463 16.3205H10.1537C9.90377 16.3205 9.6874 16.2252 9.50468 16.0354C9.32205 15.8455 9.23067 15.6204 9.23067 15.3604V8.64024ZM22.6154 16.3205C23 16.3205 23.3272 16.4605 23.596 16.7405C23.8655 17.0207 24 17.3603 24 17.7604V22.5604C24 22.9602 23.8655 23.3002 23.5962 23.5802C23.3272 23.8601 23 24 22.6156 24H1.3846C1 24 0.673102 23.8601 0.403841 23.5802C0.13458 23.3006 0 22.9602 0 22.5604V17.7604C0 17.3603 0.13458 17.0203 0.403841 16.7405C0.673153 16.4605 1.00005 16.3205 1.3846 16.3205H7.54335C7.74527 16.8805 8.0841 17.3404 8.56013 17.7003C9.03596 18.0603 9.56726 18.2404 10.1537 18.2404H13.8464C14.4328 18.2404 14.9639 18.0603 15.44 17.7003C15.916 17.3404 16.255 16.8804 16.4568 16.3205H22.6154ZM17.5384 22.0805C17.7884 22.0805 18.0048 21.9854 18.1877 21.7954C18.3703 21.6055 18.4616 21.3804 18.4616 21.1204C18.4616 20.8604 18.3703 20.6351 18.1877 20.4454C18.0048 20.2556 17.7884 20.1602 17.5384 20.1602C17.2884 20.1602 17.0723 20.2556 16.8894 20.4454C16.7068 20.6351 16.6155 20.8604 16.6155 21.1204C16.6155 21.3804 16.7068 21.6055 16.8894 21.7954C17.0723 21.9854 17.2884 22.0805 17.5384 22.0805ZM21.2308 22.0805C21.4808 22.0805 21.6972 21.9854 21.8798 21.7954C22.0627 21.6055 22.154 21.3804 22.154 21.1204C22.154 20.8604 22.0625 20.6351 21.8798 20.4454C21.6972 20.2556 21.4808 20.1602 21.2308 20.1602C20.9807 20.1602 20.7645 20.2556 20.5817 20.4454C20.3992 20.6351 20.3079 20.8604 20.3079 21.1204C20.3079 21.3804 20.3992 21.6055 20.5817 21.7954C20.7645 21.9854 20.9808 22.0805 21.2308 22.0805Z" fill="#0258FF"/>
</svg>
