<svg width="9" height="8" viewBox="0 0 9 8" fill="none" xmlns="http://www.w3.org/2000/svg">
    <path d="M8.43743 -1.95967e-07H0.562542C0.410101 -1.95967e-07 0.278316 0.0879544 0.166971 0.263717C0.0556263 0.439674 2.44256e-08 0.647933 2.44256e-08 0.888689C2.44256e-08 1.12944 0.0556263 1.33785 0.166971 1.51371L4.10443 7.73594C4.2159 7.9119 4.34768 8 4.5 8C4.65232 8 4.78423 7.9119 4.89548 7.73594L8.83294 1.51366C8.94416 1.33785 9 1.12944 9 0.88864C9 0.647933 8.94419 0.439674 8.83294 0.263668C8.72168 0.0877595 8.58978 -1.95967e-07 8.43743 -1.95967e-07Z" fill="#0258FF"/>
</svg>
